<?xml version="1.0" encoding="utf-8"?>
<!-- Generator: Adobe Illustrator 19.2.1, SVG Export Plug-In . SVG Version: 6.00 Build 0)  -->
<svg version="1.1" id="Capa_1" xmlns="http://www.w3.org/2000/svg" xmlns:xlink="http://www.w3.org/1999/xlink" x="0px" y="0px"
	 viewBox="0 0 512 512" style="enable-background:new 0 0 512 512;" xml:space="preserve">
<style type="text/css">
	.st0{fill:#0D160B;}
	.st1{fill:#8E9EAB;}
</style>
<g>
	<g>
		<path class="st0" d="M437,75C337.1-25,175-25,75,75C-25,175-25,337,75,437C175,537,337,537,437,437C537,337,537,175,437,75z
			 M289.4,367.3c0,18.4-14.9,33.4-33.4,33.4s-33.4-14.9-33.4-33.4V233.7c0-18.4,14.9-33.4,33.4-33.4s33.4,14.9,33.4,33.4V367.3z
			 M255.4,176.7c-19.2,0-32.1-13.6-31.7-30.4c-0.4-17.6,12.4-30.8,32-30.8c19.6,0,32.1,13.2,32.5,30.8
			C288.3,163,275.4,176.7,255.4,176.7z"/>
	</g>
</g>
<path class="st0" d="M255.8,115.4"/>
<path class="st0" d="M266.7,144.9"/>
<path class="st0" d="M-1.$-1.$c-1.$-1.$-1.$-1.$-1.$-1.$c-1.$-1.$-1.$-1.$-1.$-1.$c-1.$-1.$-1.$-1.$-1.$-1.$
	c-1.$-1.$-1.$-1.$-1.$-1.$z"/>
<circle class="st1" cx="255.3" cy="145.9" r="32.5"/>
<circle class="st1" cx="256" cy="233.7" r="33.4"/>
<circle class="st1" cx="256" cy="368.1" r="33.4"/>
<rect x="222.6" y="233.7" class="st1" width="66.8" height="134.4"/>
</svg>
