<?xml version="1.0" encoding="utf-8"?>
<!-- Generator: Adobe Illustrator 19.2.1, SVG Export Plug-In . SVG Version: 6.00 Build 0)  -->
<svg version="1.1" id="Capa_1" xmlns="http://www.w3.org/2000/svg" xmlns:xlink="http://www.w3.org/1999/xlink" x="0px" y="0px"
	 viewBox="0 0 512 512" style="enable-background:new 0 0 512 512;" xml:space="preserve">
<style type="text/css">
	.st0{fill:#0D160B;}
	.st1{fill:none;}
</style>
<g>
	<g>
		<path class="st0" d="M437,75C337.1-25,175-25,75,75C-25,175-25,337,75,437C175,537,337,537,437,437C537,337,537,175,437,75z
			 M289.4,367.3c0,18.4-14.9,33.4-33.4,33.4s-33.4-14.9-33.4-33.4V233.7c0-18.4,14.9-33.4,33.4-33.4s33.4,14.9,33.4,33.4V367.3z
			 M255.4,176.7c-19.2,0-32.1-13.6-31.7-30.4c-0.4-17.6,12.4-30.8,32-30.8c19.6,0,32.1,13.2,32.5,30.8
			C288.3,163,275.4,176.7,255.4,176.7z"/>
	</g>
</g>
<path class="st0" d="M255.8,115.4"/>
<path class="st0" d="M266.7,144.9"/>
<path class="st1" d="M247,136.2c-4.9,0.2-9.8,0.7-14.6,1.4c8.2-0.1,16.5-0.4,24.7-1.1c-5.5-0.3-11.1,0.3-16.4,1.8
	c1.9,1.3,4.3,1.6,6.7,2c11.4,1.6,22.7,3.2,34.1,4.8c-12.6,2-25.2,4.1-37.9,6.1c13.5,2.2,27.3,3.1,41,2.6
	c-12.8,1.3-25.4,3.4-37.9,6.2c3.8,1.2,7.8,2.1,11.8,2.4"/>
<path class="st1" d="M255.9,177.2c-5-2.3-10-4.6-15-6.9c-6.6-3-13.3-6.1-18.4-11.2s-8.4-12.6-6.6-19.6c2-7.5,9.2-12.3,16-15.9
	c7.1-3.8,14.9-7.1,22.9-6.4c4.5,0.4,8.9,2.1,13,4c7.2,3.3,14.4,7.5,18.2,14.5c4.2,7.7,3.2,17.2,0.7,25.6c-2.1,6.9-5.1,13.4-9,19.4
	c-2.9,4.5-6.5,8.9-11.5,10.6c-5.3,1.8-11.1,0.5-16.4-1.3c-4.7-1.6-9.3-3.4-13.7-5.6c-6-2.9-12-6.5-15.5-12.2
	c-5.6-8.9-3.5-21,2.3-29.8c5.8-8.8,14.7-15,23.4-20.9"/>
</svg>
