<?xml version="1.0" encoding="UTF-8"?>
<svg width="50px" height="50px" viewBox="0 0 50 50" version="1.1" xmlns="http://www.w3.org/2000/svg" xmlns:xlink="http://www.w3.org/1999/xlink">
    <!-- Generator: Sketch 51 (57462) - http://www.bohemiancoding.com/sketch -->
    <title>light</title>
    <desc>Created with Sketch.</desc>
    <defs></defs>
    <g stroke="none" stroke-width="1" fill="none" fill-rule="evenodd">
        <g transform="translate(-128.000000, -1044.000000)">
            <g class="light-icon" transform="translate(128.000000, 1044.000000)" fill="#000000" fill-rule="nonzero">
                <path d="M25.0026906,11.2484783 C17.6778027,11.2484783 11.7183857,17.0265217 11.7183857,24.1284783 C11.7183857,27.035 12.7013453,29.7813043 14.5596413,32.0691304 C14.9264574,32.5219565 15.3118834,32.9554348 15.7199552,33.4143478 L15.7423767,33.4395652 C16.9908072,34.843913 18.2816143,36.2965217 18.7636771,38.0069565 C18.8726457,38.398913 18.8881166,39.1504348 18.8818386,39.7293478 L18.8818386,40.7132609 C18.8818386,41.6136957 19.6347534,42.3436957 20.5634529,42.3436957 L29.3688341,42.3436957 C30.2975336,42.3436957 31.0504484,41.6136957 31.0504484,40.7132609 L31.0504484,39.7178261 C31.044843,38.9617391 31.0852018,38.41 31.1665919,38.1236957 C31.6513453,36.4245652 33.0818386,34.7930435 34.3553812,33.3408696 L34.4103139,33.2782609 C34.7778027,32.8595652 35.1251121,32.4641304 35.4412556,32.0743478 C37.3022422,29.7852174 38.2858744,27.0376087 38.2858744,24.1284783 C38.2856502,17.0265217 32.3269058,11.2484783 25.0026906,11.2484783 Z M32.7984305,30.0573913 C32.5215247,30.398913 32.1950673,30.7708696 31.8493274,31.1645652 L31.7816143,31.2417391 C30.2939462,32.9382609 28.6078475,34.861087 27.9244395,37.2563043 C27.8278027,37.5963043 27.7204036,38.105 27.6930493,39.0828261 L22.2419283,39.0828261 C22.2186099,38.0443478 22.109417,37.5117391 22.0096413,37.1530435 C21.3257848,34.726087 19.6426009,32.8323913 18.2899103,31.3104348 L18.2672646,31.2847826 C17.8849776,30.855 17.523991,30.448913 17.203139,30.0532609 C15.8152466,28.3445652 15.0816143,26.2956522 15.0816143,24.1284783 C15.0816143,18.8245652 19.532287,14.5093478 25.0026906,14.5093478 C30.4724215,14.5093478 34.9224215,18.8245652 34.9224215,24.1284783 C34.9224215,26.2980435 34.1883408,28.3476087 32.7984305,30.0573913 Z" id="Shape"></path>
                <path d="M29.3686099,42.8065217 L20.5634529,42.8065217 C19.6347534,42.8065217 18.8818386,43.5365217 18.8818386,44.4369565 C18.8818386,45.3373913 19.6347534,46.0673913 20.5634529,46.0673913 L29.3688341,46.0673913 C30.2975336,46.0673913 31.0504484,45.3373913 31.0504484,44.4369565 C31.0504484,43.5365217 30.2973094,42.8065217 29.3686099,42.8065217 Z" id="Shape"></path>
                <path d="M27.1672646,46.5256522 L22.7647982,46.5256522 C21.8360987,46.5256522 21.0831839,47.2556522 21.0831839,48.156087 C21.0831839,49.0565217 21.8360987,49.7865217 22.7647982,49.7865217 L27.1672646,49.7865217 C28.0959641,49.7865217 28.8488789,49.0565217 28.8488789,48.156087 C28.8488789,47.2556522 28.0959641,46.5256522 27.1672646,46.5256522 Z" id="Shape"></path>
                <path d="M48.206278,22.4980435 L42.405157,22.4980435 C41.4764574,22.4980435 40.7235426,23.2280435 40.7235426,24.1284783 C40.7235426,25.028913 41.4764574,25.758913 42.405157,25.758913 L48.206278,25.758913 C49.1349776,25.758913 49.8878924,25.028913 49.8878924,24.1284783 C49.8878924,23.2280435 49.1349776,22.4980435 48.206278,22.4980435 Z" id="Shape"></path>
                <path d="M9.28116592,24.1284783 C9.28116592,23.2280435 8.52825112,22.4980435 7.59955157,22.4980435 L1.79775785,22.4980435 C0.869058296,22.4980435 0.116143498,23.2280435 0.116143498,24.1284783 C0.116143498,25.028913 0.869058296,25.758913 1.79775785,25.758913 L7.59955157,25.758913 C8.52825112,25.758913 9.28116592,25.028913 9.28116592,24.1284783 Z" id="Shape"></path>
                <path d="M25.0022422,8.88717391 C25.9309417,8.88717391 26.6838565,8.15717391 26.6838565,7.25673913 L26.6838565,1.63043478 C26.6838565,0.73 25.9309417,0 25.0022422,0 C24.0735426,0 23.3206278,0.73 23.3206278,1.63043478 L23.3206278,7.25673913 C23.3206278,8.15717391 24.0735426,8.88717391 25.0022422,8.88717391 Z" id="Shape"></path>
                <path d="M38.4961883,34.9063043 C37.8394619,34.2695652 36.7748879,34.2693478 36.1179372,34.906087 C35.4612108,35.5428261 35.4609865,36.575 36.117713,37.2119565 L40.2199552,41.1904348 C40.5484305,41.508913 40.9786996,41.6680435 41.4091928,41.6680435 C41.8394619,41.6680435 42.2697309,41.508913 42.5982063,41.1906522 C43.2549327,40.553913 43.255157,39.5217391 42.5984305,38.8847826 L38.4961883,34.9063043 Z" id="Shape"></path>
                <path d="M11.5060538,13.3495652 C11.8345291,13.6680435 12.2647982,13.8273913 12.6952915,13.8273913 C13.1255605,13.8273913 13.5558296,13.6682609 13.8840807,13.35 C14.5410314,12.7132609 14.5410314,11.681087 13.8845291,11.0443478 L9.7838565,7.06695652 C9.12713004,6.43 8.06255605,6.43 7.4058296,7.06652174 C6.74887892,7.70326087 6.74887892,8.73543478 7.40538117,9.37217391 L11.5060538,13.3495652 Z" id="Shape"></path>
                <path d="M11.5078475,34.9063043 L7.40538117,38.8847826 C6.74865471,39.5215217 6.74887892,40.553913 7.40560538,41.1904348 C7.7338565,41.5086957 8.16434978,41.6678261 8.59461883,41.6678261 C9.02488789,41.6678261 9.45538117,41.5086957 9.7838565,41.1902174 L13.8863229,37.2117391 C14.5430493,36.575 14.5428251,35.5426087 13.8860987,34.906087 C13.2293722,34.2695652 12.164574,34.2695652 11.5078475,34.9063043 Z" id="Shape"></path>
                <path d="M37.3078475,13.8271739 C37.7381166,13.8271739 38.1686099,13.6680435 38.4970852,13.3495652 L42.5984305,9.3723913 C43.255157,8.73565217 43.2549327,7.70326087 42.5982063,7.06673913 C41.9414798,6.43 40.8766816,6.43 40.2201794,7.06695652 L36.1188341,11.0441304 C35.4621076,11.6808696 35.4623318,12.7132609 36.1190583,13.3497826 C36.4470852,13.6682609 36.8773543,13.8271739 37.3078475,13.8271739 Z" id="Shape"></path>
            </g>
        </g>
    </g>
</svg>