<?xml version="1.0" encoding="UTF-8"?>
<svg width="50px" height="50px" viewBox="0 0 50 50" version="1.1" xmlns="http://www.w3.org/2000/svg" xmlns:xlink="http://www.w3.org/1999/xlink">
    <!-- Generator: Sketch 51 (57462) - http://www.bohemiancoding.com/sketch -->
    <title>motion</title>
    <desc>Created with Sketch.</desc>
    <defs></defs>
    <g stroke="none" stroke-width="1" fill="none" fill-rule="evenodd">
        <g transform="translate(-601.000000, -1131.000000)">
            <g id="motion-icon" transform="translate(601.000000, 1131.000000)" fill="#000000" fill-rule="nonzero">
                <path d="M32.6909091,33.2390909 C32.5772727,33.07 32.4409091,32.9063636 32.2736364,32.7481818 C30.0781818,30.6709091 27.1863636,29.2918182 24.3572727,28.1318182 C25.6754545,24.9254545 26.9345455,21.6909091 28.0727273,18.4163636 C28.3145455,18.4027273 28.5645455,18.3563636 28.8309091,18.2645455 C33.6163636,16.6145455 38.3990909,14.9654545 43.1845455,13.3154545 C46.4409091,12.1927273 45.0418182,6.99818182 41.7554545,8.13090909 C37.0090909,9.76636364 32.2636364,11.4027273 27.5190909,13.04 C26.2154545,11.8145455 24.0909091,11.38 22.3236364,12.0454545 C19.1136364,8.44727273 15.9036364,4.84818182 12.6927273,1.25 C10.3809091,-1.34272727 6.59181818,2.47363636 8.89181818,5.05181818 C12.1027273,8.65181818 15.3127273,12.25 18.5245455,15.85 C18.7181818,16.0663636 18.9209091,16.2336364 19.13,16.3645455 C17.9154545,19.8263636 16.5718182,23.2445455 15.1681818,26.6318182 C15.0554545,26.9054545 14.9863636,27.1809091 14.9509091,27.4627273 C14.9245455,27.47 14.8981818,27.4772727 14.8736364,27.4845455 C11.5672727,28.7890909 7.96636364,30.2727273 5.35363636,32.7463636 C4.87272727,33.2009091 4.62363636,33.7090909 4.54909091,34.2109091 C4.11727273,34.94 3.97909091,35.8563636 4.39545455,36.8118182 C5.84,40.1236364 7.25454545,43.4490909 8.65181818,46.7818182 C9.21909091,48.1309091 10.4090909,49.0845455 11.9590909,48.6581818 C13.2363636,48.3063636 14.4045455,46.7054545 13.8363636,45.35 C12.5227273,42.2172727 11.1945455,39.0909091 9.84545455,35.9736364 C10.9781818,35.1145455 12.3290909,34.4881818 13.5836364,33.8772727 C14.2790909,33.5390909 14.9854545,33.2245455 15.6954545,32.9172727 C15.7018182,32.9172727 16.1936364,32.71 16.3018182,32.67 C16.7663636,32.4872727 18.32,31.2427273 20.6063636,32.2945455 C20.8272727,32.4427273 21.0672727,32.5690909 21.3245455,32.67 C21.42,32.7072727 21.8145455,32.8709091 21.9109091,32.9109091 C22.63,33.2181818 23.3381818,33.5427273 24.0427273,33.8772727 C25.4436364,34.5436364 26.9654545,35.26 28.1636364,36.28 C28.3609091,39.7009091 28.5827273,43.1172727 28.8190909,46.5345455 C29.06,49.9718182 34.4390909,49.9972727 34.1954545,46.5345455 C33.9272727,42.6990909 33.6763636,38.8627273 33.4636364,35.0218182 C33.4209091,34.2590909 33.1245455,33.6654545 32.6909091,33.2390909 Z" id="Shape"></path>
                <circle id="Oval" cx="26.4727273" cy="6.69" r="4.43545455"></circle>
                <polygon id="Shape" points="49.5072727 17.5572727 49.1418182 15.9863636 30.9090909 21.0727273"></polygon>
                <polygon id="Shape" points="0.884545455 9.83454545 0 11.1818182 16.2436364 20.8954545"></polygon>
                <polygon id="Shape" points="9.21727273 11.7327273 15.4427273 18.43 10.4918182 10.7427273"></polygon>
                <polygon id="Shape" points="38.9281818 26.5754545 39.3954545 25.0327273 30.4427273 23.1663636"></polygon>
            </g>
        </g>
    </g>
</svg>