<svg id="Capa_1" data-name="Capa 1" xmlns="http://www.w3.org/2000/svg" viewBox="0 0 322.22 462.54"><defs><style>.cls-1{fill:#fff;}.cls-2{fill:#427aa1;}.cls-3{fill:#ef476f;}</style></defs><title>smarTo-logo</title><path d="M392.38,209.72a19.23,19.23,0,0,1-9.14,16.35V262.4a7.5,7.5,0,0,1-7.5,7.5H359.31v17.41a117.56,117.56,0,0,1-48.9,95.4V455a7.5,7.5,0,0,1-7.5,7.5H159.62a7.5,7.5,0,0,1-7.5-7.5V382.71a117.56,117.56,0,0,1-48.9-95.4V269.9H86.79a7.5,7.5,0,0,1-7.5-7.5V226.07a19.25,19.25,0,0,1,10.14-35.62h13.72L117.38,64.1A42.56,42.56,0,0,1,159.7,26.27h30.14V7.5a7.5,7.5,0,0,1,7.5-7.5H265.2a7.5,7.5,0,0,1,7.5,7.5V26.27h30.13A42.57,42.57,0,0,1,345.16,64.1l14.23,126.35h13.72A19.29,19.29,0,0,1,392.38,209.72Zm-15,0a4.28,4.28,0,0,0-4.27-4.27H89.43a4.27,4.27,0,0,0,0,8.54H373.11A4.28,4.28,0,0,0,377.38,209.72Zm-9.14,45.18V229H94.29V254.9H368.24Zm-23.93,32.41V269.9H118.22v17.41A102.75,102.75,0,0,0,220.86,389.94h20.82A102.75,102.75,0,0,0,344.31,287.31Zm0-96.86-14-124.68a27.57,27.57,0,0,0-27.42-24.5H159.7a27.58,27.58,0,0,0-27.42,24.5l-14,124.68h74.9V152.61l-18.86-18.85a20,20,0,1,1,10.41-10.81l21.25,21.25a7.49,7.49,0,0,1,2.2,5.3v40.95h15.63V96.53a20,20,0,1,1,15,0v93.92H254.4V135.89a7.52,7.52,0,0,1,2.19-5.3l21.25-21.25a20,20,0,1,1,10.41,10.81L269.4,139v51.45h74.89Zm-42.9-88.56a5,5,0,1,0-5,5A5,5,0,0,0,301.39,101.89Zm-6,345.65V391.93a116.88,116.88,0,0,1-53.73,13H220.86a117,117,0,0,1-53.74-13v55.61H295.41ZM257.7,26.27V15H204.84V26.27H257.7ZM236.27,78a5,5,0,1,0-5,5A5,5,0,0,0,236.27,78Zm-65.13,37.51a5,5,0,1,0-5,5A5,5,0,0,0,171.14,115.51Z" transform="translate(-70.16 0)"/><path class="cls-1" d="M373.11,205.45a4.27,4.27,0,0,1,0,8.54H89.43a4.27,4.27,0,0,1,0-8.54H373.11Z" transform="translate(-70.16 0)"/><rect class="cls-2" x="24.13" y="228.99" width="273.95" height="25.91"/><path class="cls-2" d="M344.31,269.9v17.41A102.75,102.75,0,0,1,241.68,389.94H220.86A102.75,102.75,0,0,1,118.22,287.31V269.9H344.31Z" transform="translate(-70.16 0)"/><path class="cls-3" d="M296.39,96.89a5,5,0,1,1-5,5A5,5,0,0,1,296.39,96.89Z" transform="translate(-70.16 0)"/><path class="cls-3" d="M231.27,73a5,5,0,1,1-5,5A5,5,0,0,1,231.27,73Z" transform="translate(-70.16 0)"/><path class="cls-3" d="M166.14,110.51a5,5,0,1,1-5,5A5,5,0,0,1,166.14,110.51Z" transform="translate(-70.16 0)"/><rect class="cls-2" x="134.68" y="15" width="52.86" height="11.27"/></svg>