<?xml version="1.0" encoding="utf-8"?>
<!-- Generator: Adobe Illustrator 19.2.1, SVG Export Plug-In . SVG Version: 6.00 Build 0)  -->
<svg version="1.1" id="Layer_1" xmlns="http://www.w3.org/2000/svg" xmlns:xlink="http://www.w3.org/1999/xlink" x="0px" y="0px"
	 viewBox="0 0 512 512" style="enable-background:new 0 0 512 512;" xml:space="preserve">
<style type="text/css">
	.st0{fill:none;stroke:#0D160B;stroke-width:12;stroke-miterlimit:10;}
</style>
<g>
	<path class="st0" d="M49,8h131c11,0.2,19.5,8,20.9,20.9v15.3c0,6.1-2.5,9.4-5.7,9.8H37.2c-5.3,0-8.3-3.1-8.5-9.8V29.9
		C28.7,18,37.2,8.9,49,8z"/>
	<path class="st0" d="M37.7,54.7c0,178.5,0,178.5,0,178.5c0.3,9.4,4.8,16.6,12.4,22.2l129.8,0c5.9-7.7,9.5-15,9.9-21.9V54.7"/>
	<path class="st0" d="M189.8,75.8c11.1-0.7,11.1,12.7,0,13.3"/>
	<path class="st0" d="M50.1,255.3c-2.2,4.6-4.4,10.2-4.1,17.7c0.3,9.4,3.5,17.8,15.4,21.3h407c12.9,0,15.7-9,15.7-19.9
		c0-11.9-7-19.1-17-19.1L50.1,255.3z"/>
	<path class="st0" d="M216.7,38c0-2.5,0,217.3,0,217.3H450c2.8-9.3-8.4-18.6-21.4-19.3l-189.9-0.3c0,0-17.5,1-20.1,17.7"/>
	<path class="st0" d="M121.3,294.3V381c-0.4,20,16.4,26.3,36.3,25.7c0.7,0-13.8,88.6-12.7,88.6c-0.2,3.8-0.9,9,6.7,9.8h161.7
		c6.1-0.1,7.5-3.7,5.7-9.8l-19.3-79.6c-2-6.7,1.2-9.9,7.7-9.7l50,0.3c70.7-2.8,102.8-45.4,111-112"/>
</g>
</svg>
