<?xml version="1.0" encoding="iso-8859-1"?>
<!-- Generator: Adobe Illustrator 19.0.0, SVG Export Plug-In . SVG Version: 6.00 Build 0)  -->
<svg version="1.1" id="Layer_1" xmlns="http://www.w3.org/2000/svg" xmlns:xlink="http://www.w3.org/1999/xlink" x="0px" y="0px"
	 viewBox="0 0 512 512" style="enable-background:new 0 0 512 512;" xml:space="preserve">
<g>
	<g>
		<path d="M314.135,116.271h-16.829v-7.904c0-16.169-13.154-29.323-29.323-29.323h-23.968c-16.169,0-29.323,13.154-29.323,29.323
			v7.904h-16.829c-17.153,0-31.108,13.955-31.108,31.108V382.98c0,17.153,13.955,31.108,31.108,31.108h116.271
			c17.152,0,31.108-13.955,31.108-31.108V147.378C345.243,130.225,331.287,116.271,314.135,116.271z M235.092,108.367
			c0-4.921,4.003-8.924,8.924-8.924h23.968c4.921,0,8.924,4.003,8.924,8.924v7.904h-41.817V108.367z M324.845,382.98
			c0,5.905-4.804,10.709-10.709,10.709H197.865c-5.905,0-10.709-4.804-10.709-10.709V147.378c0-5.905,4.804-10.709,10.709-10.709
			h116.271c5.905,0,10.709,4.804,10.709,10.709V382.98z"/>
	</g>
</g>
<g>
	<g>
		<path d="M292.205,257.212c-1.859-2.999-5.138-4.823-8.667-4.823h-36.441l10.818-18.849c2.805-4.885,1.118-11.118-3.768-13.923
			c-4.884-2.805-11.117-1.118-13.923,3.769l-19.589,34.125c-1.811,3.156-1.804,7.038,0.019,10.188s5.186,5.088,8.826,5.088h37.61
			L238.704,330c-2.504,5.047-0.443,11.166,4.603,13.67c1.456,0.722,3.003,1.065,4.525,1.065c3.752,0,7.364-2.08,9.145-5.669
			l35.697-71.946C294.243,263.958,294.065,260.211,292.205,257.212z"/>
	</g>
</g>
<g>
	<g>
		<path d="M272.297,187.998c-4.887-2.804-11.119-1.116-13.922,3.77l-1.756,3.06c-2.806,4.886-1.118,11.119,3.768,13.923
			c1.6,0.918,3.345,1.354,5.067,1.354c3.534,0,6.971-1.839,8.856-5.124l1.756-3.06C278.87,197.035,277.183,190.802,272.297,187.998z
			"/>
	</g>
</g>
<g>
	<g>
		<path d="M501.801,245.801c-5.632,0-10.199,4.566-10.199,10.199c0,129.911-105.69,235.602-235.602,235.602
			c-57.597,0-112.03-20.54-154.961-58.135h32.57c5.633,0,10.199-4.566,10.199-10.199c0-5.633-4.566-10.199-10.199-10.199H78.534
			c-5.633,0-10.199,4.566-10.199,10.199v55.076c0,5.633,4.566,10.199,10.199,10.199c5.633,0,10.199-4.566,10.199-10.199v-28.528
			C135.206,490.045,193.915,512,256,512c68.381,0,132.667-26.628,181.019-74.98C485.372,388.667,512,324.38,512,256
			C512,250.367,507.433,245.801,501.801,245.801z"/>
	</g>
</g>
<g>
	<g>
		<path d="M438.566,27.538c-5.632,0-10.199,4.566-10.199,10.199v28.988C381.126,23.611,320.379,0,256,0
			C187.62,0,123.333,26.628,74.98,74.98C26.628,123.333,0,187.62,0,256c0,5.633,4.566,10.199,10.199,10.199
			c5.633,0,10.199-4.566,10.199-10.199c0-129.911,105.69-235.602,235.602-235.602c59.647,0,115.901,22.028,159.5,62.215h-32.01
			c-5.632,0-10.199,4.566-10.199,10.199c0,5.633,4.567,10.199,10.199,10.199h55.076c5.632,0,10.199-4.566,10.199-10.199V37.737
			C448.765,32.104,444.198,27.538,438.566,27.538z"/>
	</g>
</g>
<g>
</g>
<g>
</g>
<g>
</g>
<g>
</g>
<g>
</g>
<g>
</g>
<g>
</g>
<g>
</g>
<g>
</g>
<g>
</g>
<g>
</g>
<g>
</g>
<g>
</g>
<g>
</g>
<g>
</g>
</svg>
