<?xml version="1.0" encoding="iso-8859-1"?>
<!-- Generator: Adobe Illustrator 19.0.0, SVG Export Plug-In . SVG Version: 6.00 Build 0)  -->
<svg version="1.1" id="Layer_1" xmlns="http://www.w3.org/2000/svg" xmlns:xlink="http://www.w3.org/1999/xlink" x="0px" y="0px"
	 viewBox="0 0 512 512" style="enable-background:new 0 0 512 512;" xml:space="preserve">
<g>
	<g>
		<path fill="#363732" d="M350.609,0H194.783c-7.83,0-19.478,5.187-19.478,19.478v75.13h61.217V55.652h72.348v73.853l-166.957,33.391V512h228.174
			V19.478C370.087,11.649,364.899,0,350.609,0z M353.391,495.304H158.609v-33.391h136.348v-16.696H158.609V176.582l166.957-33.391
			V38.957H219.826v38.956H192V19.478c0-1.178,0-2.641,2.896-2.783h155.713c1.178,0,2.641,0,2.783,2.897V495.304z"/>
	</g>
</g>
<g>
	<g>
		<rect fill="#363732" x="306.087" y="445.217" width="22.261" height="16.696"/>
	</g>
</g>
<g>
	<g>
		<path fill="#363732" d="M256,228.174c-41.427,0-75.13,33.703-75.13,75.13c0,41.427,33.703,75.13,75.13,75.13s75.13-33.703,75.13-75.13
			C331.13,261.877,297.427,228.174,256,228.174z M256,361.739c-32.221,0-58.435-26.214-58.435-58.435
			c0-32.22,26.213-58.435,58.435-58.435s58.435,26.214,58.435,58.435C314.435,335.525,288.221,361.739,256,361.739z"/>
	</g>
</g>
<g>
	<g>
		<rect fill="#363732" x="217.043" y="294.957" width="77.913" height="16.696"/>
	</g>
</g>
</svg>
