<?xml version="1.0" encoding="utf-8"?>
<!-- Generator: Adobe Illustrator 19.2.1, SVG Export Plug-In . SVG Version: 6.00 Build 0)  -->
<svg version="1.1" id="Layer_1" xmlns="http://www.w3.org/2000/svg" xmlns:xlink="http://www.w3.org/1999/xlink" x="0px" y="0px"
	 viewBox="0 0 512 512" style="enable-background:new 0 0 512 512;" xml:space="preserve">
<style type="text/css">
	.st0{fill:none;stroke:#000000;stroke-width:14;stroke-miterlimit:10;}
	.st1{fill:none;stroke:#000000;stroke-width:8;stroke-miterlimit:10;}
	.st2{fill:none;stroke:#000000;stroke-width:16;stroke-miterlimit:10;}
	.st3{fill:#FFFFFF;stroke:#000000;stroke-width:10;stroke-miterlimit:10;}
</style>
<path class="st0" d="M256,356.2c-30.5,0-55.4-24.9-55.4-55.4c0-30.5,24.9-55.4,55.4-55.4s55.4,24.9,55.4,55.4S286.6,356.2,256,356.2
	z"/>
<g>
	<g>
		<path class="st1" d="M222.1,298.2h68c0.4,0,0.5,0.1,0.5,0.2v6.9c0,0.2-0.1,0.2-0.4,0.2H222c-0.3,0-0.4-0.1-0.4-0.2v-3.5v-3.4
			C221.5,298.3,221.7,298.2,222.1,298.2z"/>
	</g>
</g>
<path class="st2" d="M272.1,20.8h76.2c3.4,0,8.6,5.1,8.6,8.2c-1.5,2.6,0,453.8,0,453.8c-0.6,3.5-3.8,7.8-8.6,7.5H163.7
	c-5.6-0.3-7.6-3.2-7.7-7.5v-39.6V179.9c0-4.9,4-6.9,7.7-7.3l142.6-28.4c5.1-1.2,8-4,8.3-8.5V62.2c0-2.9-0.7-4.6-4.7-4.9h-74.5
	c-3.2,0-4.7,1.8-5.1,4.7v29.3c-0.3,2.7-2,4.2-5,4.6h-32c-3.4-0.2-5.1-1.7-5-4.7V30.3c0.7-5.2,2.6-8.7,9.5-9.5H272.1z"/>
<path class="st2" d="M286,443.3c1.6,0-130,0-130,0"/>
<path class="st2" d="M308.5,443.3c-0.2,0,3.1,0,4.5,0c0.3,0,1.9,0,0.5,0"/>
<path class="st3" d="M217,303.3"/>
</svg>
