<?xml version="1.0" encoding="utf-8"?>
<!-- Generator: Adobe Illustrator 19.2.1, SVG Export Plug-In . SVG Version: 6.00 Build 0)  -->
<svg version="1.1" id="Layer_1" xmlns="http://www.w3.org/2000/svg" xmlns:xlink="http://www.w3.org/1999/xlink" x="0px" y="0px"
	 viewBox="0 0 384 426.7" style="enable-background:new 0 0 384 426.7;" xml:space="preserve">
<style type="text/css">
	.st0{fill:#0D160B;}
	.st1{fill:#363732;}
</style>
<g>
	<g>
		<path class="st0" d="M377.9,314.2c-0.1-0.3-0.3-0.6-0.5-0.8c-2.6-4.6-5.9-8.1-9.8-10.4c-28.8-16.6-46.2-61.8-51.8-134.4
			c-4.1-53.8-42.5-97.9-92.4-111.2c3.7-5.8,5.9-12.7,5.9-20.1C229.3,16.8,212.6,0,192,0c-20.6,0-37.3,16.8-37.3,37.3
			c0,7.4,2.2,14.3,5.9,20.1c-49.9,13.3-88.3,57.4-92.4,111.2c-5.6,72.5-23,117.7-51.8,134.4C8,307.8,2.6,318,0.7,332.6
			c-1.2,9.4-1.6,29.2,5.8,36.6c2,2,4.7,3.1,7.5,3.1h113.8c5.1,30.8,31.9,54.3,64.1,54.3c32.2,0,59-23.6,64.1-54.3h113.8
			c2.8,0,5.5-1.1,7.5-3.1c7.4-7.4,7.1-27.2,5.8-36.7C382.3,325.3,380.5,319.2,377.9,314.2z M192,21.3c8.8,0,16,7.2,16,16
			c0,8.8-7.2,16-16,16c-8.8,0-16-7.2-16-16C176,28.5,183.2,21.3,192,21.3z M192,405.3c-20.4,0-37.6-14.1-42.3-33h84.7
			C229.6,391.3,212.4,405.3,192,405.3z M362.2,351H21.7c-0.4-3.5-0.7-8.5-0.1-14.2c1-9.5,3.8-14.4,5.3-15.3
			c35.7-20.6,56.2-70.1,62.4-151.2c4.1-53.6,49.2-95.6,102.6-95.6c53.4,0,98.4,42,102.6,95.6c3,39,9.3,70.7,19,95.4h-40.1
			c-5.9,0-10.7,4.8-10.7,10.7s4.8,10.7,10.7,10.7h50.3c4.8,8.2,10.2,15.4,16.2,21.3H233.6c-5.9,0-10.7,4.8-10.7,10.7
			c0,5.9,4.8,10.7,10.7,10.7H361c0.5,2,1,4.3,1.2,7.1C362.9,342.5,362.7,347.5,362.2,351z"/>
		<path class="st1" d="M195.2,308.3h-6.4c-5.9,0-10.7,4.8-10.7,10.7c0,5.9,4.8,10.7,10.7,10.7h6.4c5.9,0,10.7-4.8,10.7-10.7
			C205.8,313.1,201.1,308.3,195.2,308.3z"/>
	</g>
</g>
</svg>
