<?xml version="1.0" encoding="iso-8859-1"?>
<!-- Generator: Adobe Illustrator 19.0.0, SVG Export Plug-In . SVG Version: 6.00 Build 0)  -->
<svg xmlns="http://www.w3.org/2000/svg" xmlns:xlink="http://www.w3.org/1999/xlink" version="1.1" id="Layer_1" x="0px" y="0px" viewBox="0 0 512 512" style="enable-background:new 0 0 512 512;" xml:space="preserve" width="512px" height="512px">
<g>
	<g>
		<g>
			<path d="M441.904,314.239c-0.142-0.284-0.295-0.559-0.463-0.828c-2.579-4.601-5.867-8.114-9.823-10.396     c-28.787-16.613-46.208-61.816-51.781-134.352c-4.133-53.8-42.494-97.895-92.406-111.187c3.738-5.813,5.915-12.72,5.915-20.129     C293.347,16.754,276.592,0,255.998,0c-20.592,0-37.346,16.754-37.346,37.348c0,7.409,2.179,14.315,5.915,20.129     c-49.912,13.291-88.273,57.387-92.408,111.187c-5.573,72.536-22.994,117.738-51.779,134.352     c-8.337,4.811-13.755,15.027-15.665,29.548c-1.239,9.426-1.621,29.217,5.817,36.649c2,1.999,4.713,3.122,7.539,3.122h113.823     c5.104,30.781,31.9,54.332,64.107,54.332c32.206,0,59.001-23.551,64.107-54.332h113.821c2.827,0,5.539-1.123,7.539-3.122     c7.44-7.437,7.056-27.234,5.814-36.663C446.33,325.338,444.513,319.191,441.904,314.239z M255.998,21.333     c8.831,0,16.015,7.184,16.015,16.015c0,8.83-7.183,16.014-16.015,16.014c-8.829,0-16.013-7.184-16.013-16.014     C239.986,28.517,247.17,21.333,255.998,21.333z M255.998,405.333c-20.398,0-37.569-14.061-42.341-32.998h84.681     C293.567,391.272,276.396,405.333,255.998,405.333z M426.234,351.002H85.763c-0.442-3.487-0.675-8.542-0.067-14.235     c1.021-9.532,3.756-14.356,5.346-15.275c35.748-20.631,56.156-70.087,62.387-151.194c4.118-53.609,49.173-95.603,102.568-95.603     c53.396,0,98.45,41.995,102.568,95.603c2.998,39.019,9.285,70.691,18.975,95.374h-40.1c-5.889,0-10.667,4.775-10.667,10.667     s4.778,10.667,10.667,10.667h50.323c4.822,8.249,10.221,15.35,16.197,21.333H297.596c-5.889,0-10.667,4.775-10.667,10.667     c0,5.891,4.778,10.667,10.667,10.667H425.05c0.512,1.988,0.953,4.338,1.248,7.093     C426.909,342.459,426.675,347.514,426.234,351.002z" fill="#363732"/>
			<path d="M259.198,308.339h-6.4c-5.891,0-10.667,4.775-10.667,10.667c0,5.891,4.775,10.667,10.667,10.667h6.4     c5.889,0,10.667-4.775,10.667-10.667C269.865,313.114,265.088,308.339,259.198,308.339z" fill="#363732"/>
		</g>
	</g>
</g>
<g>
</g>
</svg>
