<?xml version="1.0" encoding="utf-8"?>
<!-- Generator: Adobe Illustrator 19.2.1, SVG Export Plug-In . SVG Version: 6.00 Build 0)  -->
<svg version="1.1" id="Layer_1" xmlns="http://www.w3.org/2000/svg" xmlns:xlink="http://www.w3.org/1999/xlink" x="0px" y="0px"
	 viewBox="0 0 512 512" style="enable-background:new 0 0 512 512;" xml:space="preserve">
<style type="text/css">
	.st0{fill:none;stroke:#0D160B;stroke-width:12;stroke-miterlimit:10;}
</style>
<path class="st0" d="M256.5,491.5c-17.1,0-31-13.9-31-31c0-17.1,13.9-31,31-31s31,13.9,31,31S273.6,491.5,256.5,491.5z"/>
<path class="st0" d="M256,73.7c48.7,2.3,79.1,30.1,82.3,78.7c0.2,51.4-24.7,83.1-81.8,89.3c-20,2-30.3,10-31.5,29.7v100.3
	c0.6,19.7,13.2,30.9,31,31c22,0.4,32.2-13.1,32.3-30v-72.8c73.5-22.3,113.6-70.1,116-146.9C402.6,65.8,345.6,7.3,256,7.3
	c-58.3,0-92.5,24.2-120,60.7c-22.5,30.5-32,70-25.3,97c2.8,13.1,11.8,20.7,24.7,24.7c17.4,2.7,28.5-5.3,35.3-20.3
	c7.6-23.3,2.2-25.6,7.1-44.3C191.1,84.6,218.4,74.2,256,73.7z"/>
<path class="st0" d="M256,309.3c0-1.7,0,46.1,0,55.6s0,1.8,0,1.8"/>
<path class="st0" d="M256,274.3c0-1.1,0,6.4,0,7.4s0-0.6,0,0.7"/>
</svg>
