<?xml version="1.0" encoding="iso-8859-1"?>
<!-- Generator: Adobe Illustrator 19.0.0, SVG Export Plug-In . SVG Version: 6.00 Build 0)  -->
<svg version="1.1" id="Layer_1" xmlns="http://www.w3.org/2000/svg" xmlns:xlink="http://www.w3.org/1999/xlink" x="0px" y="0px"
	 viewBox="0 0 512 512" style="enable-background:new 0 0 512 512;" xml:space="preserve">
<g>
	<g>
		<path fill="#363732" d="M464.596,247.492h-6.202c-4.261-11.634-15.359-19.712-28.338-19.712H239.28c-4.964,0-9.656,1.192-13.799,3.31V35.937
			c0-4.625-3.75-8.375-8.375-8.375c-3.996,0-7.331,2.8-8.168,6.544v-1.091C208.936,14.81,194.126,0,175.922,0H53.429
			C35.225,0,20.416,14.81,20.416,33.014v13.552c0,5.948,3.635,11.061,8.799,13.237v170.721c0,11.083,4.572,21.458,12.378,28.915
			c-2.897,4.3-4.59,9.475-4.59,15.04c0,14.88,12.106,26.986,26.987,26.986h48.647v79.08c0,19.232,15.484,34.915,34.64,35.239
			l-12.527,86.642c-0.348,2.405,0.366,4.843,1.958,6.68c1.59,1.838,3.902,2.893,6.332,2.893h178.405
			c2.563,0,4.985-1.174,6.573-3.185s2.167-4.639,1.573-7.132l-20.474-85.894h38.386c32.998,0,64.158-12.706,87.74-35.779
			c21.871-21.398,34.97-49.498,37.335-79.75c10.997-3.41,19.006-13.679,19.006-25.781
			C491.583,259.599,479.478,247.492,464.596,247.492z M239.28,244.531h190.777c3.195,0,6.126,1.107,8.438,2.961H230.851
			C233.162,245.637,236.092,244.531,239.28,244.531z M199.079,230.525V93.213c4.252-1.889,7.222-6.143,7.222-11.097
			c0-4.954-2.969-9.206-7.222-11.096V60.19c5-1.656,8.776-5.987,9.649-11.291v195.643c0,1.04,0.199,2.031,0.545,2.95h-14.029
			C197.724,242.23,199.08,236.445,199.079,230.525z M37.167,44.175v-11.16c0-8.968,7.294-16.264,16.263-16.264h122.493
			c8.968,0,16.264,7.295,16.264,16.264v11.16H37.167z M45.965,230.525v-169.6H182.33v169.6c0.001,6.411-2.72,12.574-7.388,16.967
			H63.989c-3.103,0-6.083,0.534-8.86,1.502C49.404,244.608,45.965,237.832,45.965,230.525z M423.527,368.036
			c-20.434,19.991-47.433,31.002-76.025,31.002H298.51c-2.563,0-4.985,1.174-6.573,3.185c-1.588,2.011-2.168,4.639-1.573,7.132
			l20.474,85.894H152.711l12.526-86.638c0.348-2.405-0.366-4.843-1.958-6.68c-1.59-1.838-3.902-2.893-6.332-2.893h-9.069
			c-10.198,0-18.494-8.296-18.494-18.493v-79.08h326.266C453.091,326.71,441.869,350.092,423.527,368.036z M464.596,284.716H63.989
			c-5.644,0-10.237-4.592-10.237-10.236c0-5.644,4.592-10.237,10.237-10.237H451.76c0.003,0,0.008,0.001,0.011,0.001
			s0.008-0.001,0.011-0.001h12.814c5.644,0,10.237,4.592,10.237,10.237C474.833,280.125,470.24,284.716,464.596,284.716z"/>
	</g>
</g>
</svg>
